<svg width="800" height="684" xmlns="http://www.w3.org/2000/svg" xmlns:xlink="http://www.w3.org/1999/xlink" overflow="hidden"><defs><clipPath id="clip0"><rect x="188" y="18" width="800" height="684"/></clipPath></defs><g clip-path="url(#clip0)" transform="translate(-188 -18)"><path d="M406.291 43.3648C430.278 22.0059 467.93 17.6273 502.198 19.3278 609.849 24.6757 707.03 76.6683 791.087 135.479 821.472 156.764 851.47 179.709 871.228 209.028 911.466 268.71 899.51 351.385 843.595 400.544 824.576 417.278 801.508 430.118 777.841 441.462 735.747 461.68 690.326 477.904 642.549 482.537 608.478 485.823 573.988 483.153 540.121 478.561 445.487 465.705 352.601 437.314 274.752 388.747 240.606 367.446 208.424 340.96 194.348 306.499 180.273 272.037 189.282 228.358 224.15 207.96 238.57 199.523 255.807 195.72 272.69 192.138 297.532 186.872 322.783 181.68 345.202 170.976 368.36 159.919 395.78 138.527 391.189 114.055 386.278 87.7915 382.328 64.7237 406.291 43.3648Z" fill="#26A69A" fill-rule="evenodd" fill-opacity="0.101961"/><path d="M504.988 248.647 504.988 344.895C504.974 368.686 524.346 387.983 548.257 387.996 548.276 387.996 548.295 387.996 548.314 387.996L606.072 387.996C627.551 388.01 644.974 370.696 644.988 349.324 644.988 349.299 644.988 349.274 644.988 349.25L644.988 248.647C644.988 210.18 613.648 178.996 574.988 178.996 536.328 178.996 504.988 210.18 504.988 248.647Z" fill="#65617D" fill-rule="evenodd"/><path d="M504.988 248.647 504.988 344.895C504.974 368.686 524.346 387.983 548.257 387.996 548.276 387.996 548.295 387.996 548.314 387.996L606.072 387.996C627.551 388.01 644.974 370.696 644.988 349.324 644.988 349.299 644.988 349.274 644.988 349.25L644.988 248.647C644.988 210.18 613.648 178.996 574.988 178.996 536.328 178.996 504.988 210.18 504.988 248.647Z" fill="#000000" fill-rule="evenodd" fill-opacity="0.101961"/><path d="M506.988 249.647 506.988 343.136C506.979 366.246 525.803 384.987 549.032 384.996 549.046 384.996 549.059 384.996 549.073 384.996L605.186 384.996C626.05 385.01 642.974 368.195 642.988 347.438 642.988 347.425 642.988 347.411 642.988 347.397L642.988 249.647C642.988 212.284 612.543 181.996 574.988 181.996 537.433 181.996 506.988 212.284 506.988 249.647Z" fill="#65617D" fill-rule="evenodd"/><path d="M523.99 263.313 523.99 341.148C523.957 348.19 525.92 355.098 529.653 361.074 535.357 370.098 544.825 375.996 555.551 375.996L597.64 375.996C607.865 375.996 616.823 370.032 621.804 361.074 624.577 356.051 626.018 350.403 625.988 344.667L625.988 263.313C625.988 232.214 603.155 206.996 574.989 206.996 560.91 206.996 548.162 213.297 538.932 223.494 529.189 234.466 523.866 248.652 523.99 263.313Z" fill="#000000" fill-rule="evenodd" fill-opacity="0.101961"/><path d="M673 531C673 535.418 669.418 539 665 539 660.582 539 657 535.418 657 531 657 526.582 660.582 523 665 523 669.418 523 673 526.582 673 531Z" fill="#333F4F" fill-rule="evenodd"/><path d="M659 561C659 565.418 655.418 569 651 569 646.582 569 643 565.418 643 561 643 556.582 646.582 553 651 553 655.418 553 659 556.582 659 561Z" fill="#333F4F" fill-rule="evenodd"/><path d="M521 566.5C521 570.642 517.642 574 513.5 574 509.358 574 506 570.642 506 566.5 506 562.358 509.358 559 513.5 559 517.642 559 521 562.358 521 566.5Z" fill="#333F4F" fill-rule="evenodd"/><path d="M491 527.5C491 531.642 487.418 535 483 535 478.582 535 475 531.642 475 527.5 475 523.358 478.582 520 483 520 487.418 520 491 523.358 491 527.5Z" fill="#333F4F" fill-rule="evenodd"/><path d="M570 395 580 395 580 455 570 455Z" fill="#333F4F" fill-rule="evenodd"/><path d="M570 445 580 445 580 455 570 455Z" fill="#333F4F" fill-rule="evenodd" fill-opacity="0.101961"/><path d="M581.012 515.004 568.012 515.004 568.012 448.004 581.012 448.004Z" fill="#333F4F" fill-rule="evenodd"/><path d="M484.097 514.566 571.988 510.996 571.988 524.996 469.988 524.996C472.072 518.967 477.675 514.825 484.097 514.566Z" fill="#333F4F" fill-rule="evenodd"/><path d="M659.88 514.566 571.988 510.996 571.988 524.996 673.988 524.996C671.904 518.967 666.302 514.825 659.88 514.566Z" fill="#333F4F" fill-rule="evenodd"/><path d="M581.33 512.375 651.153 546.427C657.183 549.378 660.996 555.461 660.988 562.116L660.988 563.145 579.436 527.974 567.962 527.163 500.147 569.996 500.147 569.996C499.268 563.546 502.081 557.147 507.45 553.384L567.962 510.996Z" fill="#333F4F" fill-rule="evenodd"/><path d="M569.988 394.997 569.988 400.907C571.729 400.967 573.514 400.997 575.341 400.997 576.915 400.997 578.464 400.997 579.988 400.93L579.988 394.997Z" fill="#333F4F" fill-rule="evenodd" fill-opacity="0.101961"/><path d="M611 388.5C611 394.299 594.882 399 575 399 555.118 399 539 394.299 539 388.5 539 382.701 555.118 378 575 378 594.882 378 611 382.701 611 388.5Z" fill="#333F4F" fill-rule="evenodd"/><path d="M539.988 388.488C540.055 389.67 540.603 390.77 541.502 391.527 541.854 391.871 542.231 392.186 542.631 392.471 547.916 396.297 560.63 398.996 575.48 398.996 590.33 398.996 603.15 396.272 608.411 392.413 608.673 392.23 608.925 392.031 609.164 391.817 610.222 391.037 610.889 389.826 610.988 388.505 610.988 382.708 595.099 377.996 575.48 377.996 555.86 377.996 539.988 382.683 539.988 388.488Z" fill="#333F4F" fill-rule="evenodd"/><path d="M539.988 388.488C540.055 389.67 540.603 390.77 541.502 391.527 541.854 391.871 542.231 392.186 542.631 392.471 547.916 396.297 560.63 398.996 575.48 398.996 590.33 398.996 603.15 396.272 608.411 392.413 608.673 392.23 608.925 392.031 609.164 391.817 610.222 391.037 610.889 389.826 610.988 388.505 610.988 382.708 595.099 377.996 575.48 377.996 555.86 377.996 539.988 382.683 539.988 388.488Z" fill="#333F4F" fill-rule="evenodd" fill-opacity="0.101961"/><path d="M538.988 388.624C539.055 389.821 539.611 390.936 540.523 391.703 545.111 390.554 548.28 389.589 548.28 389.589 548.28 389.589 580.008 391.384 609.138 391.996 610.212 391.207 610.889 389.98 610.988 388.641 610.988 382.769 594.875 377.996 574.98 377.996 555.084 377.996 538.988 382.744 538.988 388.624Z" fill="#333F4F" fill-rule="evenodd" fill-opacity="0.101961"/><path d="M514.988 366.996C522.795 378.287 535.608 385.013 549.281 384.996L604.993 384.996C618.046 385.006 630.164 378.189 636.988 366.996Z" fill="#333F4F" fill-rule="evenodd" fill-opacity="0.101961"/><path d="M539.988 388.847C540.055 390.069 540.603 391.207 541.502 391.99 541.854 392.345 542.231 392.672 542.631 392.966 564.538 394.359 586.506 394.339 608.411 392.906 608.673 392.717 608.925 392.511 609.164 392.29 610.222 391.483 610.889 390.231 610.988 388.864 610.988 382.869 595.099 377.996 575.48 377.996 555.86 377.996 539.988 382.843 539.988 388.847Z" fill="#333F4F" fill-rule="evenodd" fill-opacity="0.101961"/><path d="M507.5 387.776C552.632 393.403 598.303 393.403 643.435 387.776 648.688 387.798 652.965 383.613 652.988 378.427 652.988 378.413 652.988 378.4 652.988 378.386L652.988 378.386C652.988 373.2 648.729 368.996 643.476 368.996L507.5 368.996C502.247 368.996 497.988 373.2 497.988 378.386L497.988 378.386C497.988 383.572 502.247 387.776 507.5 387.776Z" fill="#333F4F" fill-rule="evenodd"/><path d="M632.719 490.996C632.719 490.996 642.099 500.636 648.502 501.555 654.904 502.474 660.167 523.136 651.249 524.742 642.33 526.349 625.17 519.922 622.654 517.165 620.137 514.407 610.988 498.118 610.988 498.118Z" fill="#65617D" fill-rule="evenodd"/><path d="M580.988 388.371C580.988 388.371 603.744 432.147 604.195 438.107 604.646 444.068 623.988 469.325 623.988 469.325L599.87 499.996C599.87 499.996 596.686 492.2 591.229 489.447 585.772 486.694 586.905 480.51 586.905 480.51 586.905 480.51 581.218 480.51 577.123 473.632 573.028 466.754 568.022 459.884 568.022 456.924 568.022 453.964 537.988 422.772 537.988 422.772L540.261 389.537 546.408 378.996Z" fill="#3F3D56" fill-rule="evenodd"/><path d="M640.096 390.963 640.291 391.136C643.031 393.608 673.782 421.146 673.782 421.797 673.782 422.448 684.856 440.987 671.067 456.98 657.277 472.974 625.621 499.242 625.621 499.242 625.621 499.242 611.832 509.294 610.022 511.354 608.211 513.414 580.861 511.354 597.137 492.617 613.414 473.88 628.785 452.869 628.785 452.869 628.785 452.869 601.655 446.277 599.853 441.679 598.051 437.081 635.57 379.996 635.57 379.996Z" fill="#000000" fill-rule="evenodd" fill-opacity="0.101961"/><path d="M640.982 390.963 641.179 391.136C643.927 393.608 674.77 421.146 674.77 421.797 674.77 422.448 685.877 440.987 672.046 456.98 658.215 472.974 626.465 499.242 626.465 499.242 626.465 499.242 612.634 509.294 610.819 511.354 609.003 513.414 581.562 511.354 597.896 492.617 614.229 473.88 629.638 452.869 629.638 452.869 629.638 452.869 602.427 446.277 600.611 441.679 598.795 437.081 562.988 381.133 562.988 381.133L636.459 379.996Z" fill="#3F3D56" fill-rule="evenodd"/><path d="M561.988 269.125 564.745 294.026C564.745 294.026 593.069 305.224 593.767 304.993 594.464 304.762 612.646 288.513 609.656 277.802 608.153 272.421 607.463 264.956 607.164 258.85 606.865 252.744 606.907 248.097 606.907 248.097 606.907 248.097 565.684 233.472 569.372 243.524 570.709 247.174 570.103 251.55 568.791 255.637 567.142 260.415 564.854 264.951 561.988 269.125Z" fill="#FBBEBE" fill-rule="evenodd"/><path d="M568.988 255.606C569.235 255.894 569.49 256.165 569.745 256.428 579.608 266.868 595.88 267.901 606.988 258.794 606.676 252.764 606.733 248.073 606.733 248.073 606.733 248.073 565.912 233.491 569.564 243.514 570.888 247.169 570.288 251.531 568.988 255.606Z" fill="#000000" fill-rule="evenodd" fill-opacity="0.101961"/><path d="M561.989 236.505C561.993 251.693 574.309 264.001 589.497 263.996 604.684 263.992 616.992 251.676 616.988 236.488 616.983 221.307 604.678 209.001 589.497 208.997 574.4 208.901 562.085 221.06 561.989 236.157 561.988 236.273 561.988 236.389 561.989 236.505Z" fill="#FBBEBE" fill-rule="evenodd"/><path d="M596.321 294.607C596.321 294.607 606.985 270.996 610.652 270.996 614.319 270.996 619.988 393.13 619.988 393.13L564.269 393.996 561.988 329.876 573.35 273.073C573.35 273.073 583.58 295.482 596.321 294.607Z" fill="#000000" fill-rule="evenodd" fill-opacity="0.101961"/><path d="M596.031 296.592C596.031 296.592 606.826 272.996 610.538 272.996 614.25 272.996 619.988 395.04 619.988 395.04L555.988 395.996 561.278 331.837 572.796 275.031C572.796 275.031 583.134 297.466 596.031 296.592Z" fill="#000000" fill-rule="evenodd" fill-opacity="0.101961"/><path d="M596.031 295.584C596.031 295.584 606.826 271.996 610.538 271.996 614.25 271.996 619.988 394.041 619.988 394.041L555.988 394.996 561.278 330.858 572.796 274.071C572.796 274.071 583.134 296.457 596.031 295.584Z" fill="#65617D" fill-rule="evenodd"/><path d="M605.988 264.129C605.988 264.129 607.904 261.322 610.642 262.236 613.381 263.149 615.428 260.639 618.167 263.149 620.905 265.66 631.842 269.083 633.898 267.939 635.954 266.795 643.24 271.824 644.843 274.786 646.446 277.749 651.677 285.74 651.677 285.74 651.677 285.74 656.24 291.213 655.558 294.184 654.875 297.155 657.153 300.57 659.883 301.936 662.613 303.303 668.107 316.997 668.107 316.997 668.107 316.997 666.618 335.317 672.769 338.502 678.92 341.687 674.364 355.62 674.364 355.62L645.287 348.715 637.064 330C637.064 330 640.254 384.77 644.128 389.782 648.001 394.794 648.461 398.011 648.461 398.011 648.461 398.011 633.413 401.205 630.222 403.937 627.031 406.669 618.594 403.254 618.594 403.254L610.371 330.469C610.371 330.469 607.411 316.775 607.411 309.706 607.411 302.636 605.988 264.129 605.988 264.129Z" fill="#000000" fill-rule="evenodd" fill-opacity="0.101961"/><path d="M606.988 264.129C606.988 264.129 608.906 261.322 611.648 262.236 614.39 263.149 616.44 260.639 619.181 263.149 621.923 265.66 632.873 269.083 634.931 267.939 636.99 266.795 644.284 271.824 645.881 274.786 647.479 277.749 652.731 285.74 652.731 285.74 652.731 285.74 657.301 291.213 656.617 294.184 655.934 297.155 658.215 300.57 660.948 301.936 663.682 303.303 669.181 316.997 669.181 316.997 669.181 316.997 667.708 335.308 673.874 338.502 675.414 339.325 676.286 341.078 676.723 343.3 678.493 352.237 671.157 360.418 662.043 360.138L646.4 353.653 638.167 330C638.167 330 641.361 384.77 645.239 389.782 649.117 394.794 649.578 398.011 649.578 398.011 649.578 398.011 634.511 401.205 631.317 403.937 628.123 406.669 619.675 403.254 619.675 403.254L611.442 330.469C611.442 330.469 608.478 316.775 608.478 309.706 608.478 302.636 606.988 264.129 606.988 264.129Z" fill="#26A69A" fill-rule="evenodd"/><path d="M636.35 284.996C636.35 285.913 633.286 301.937 636.35 308.574 639.415 315.211 638.966 322.996 638.966 322.996Z" fill="#000000" fill-rule="evenodd" fill-opacity="0.101961"/><path d="M569.118 258.878C569.118 258.878 567.335 256.784 565.51 257.014 563.686 257.244 562.552 258.377 560.268 259.289 557.983 260.2 552.526 260.43 552.526 261.112 552.526 261.793 547.735 264.528 544.547 265.218 541.358 265.908 531.332 272.732 528.826 285.937 526.319 299.143 521.988 303.01 521.988 303.01L546.141 314.869C546.141 314.869 527.461 394.1 525.185 399.791 522.908 405.482 522.719 439.21 522.719 439.21 522.719 439.21 537.512 445.779 541.399 447.857 545.286 449.935 543.675 428.279 551.655 415.756 559.635 403.232 568.74 385.017 568.74 385.017L582.596 346.075C582.596 346.075 591.488 294.166 583.968 284.599 576.449 275.032 568.436 262.311 569.118 258.878Z" fill="#000000" fill-rule="evenodd" fill-opacity="0.101961"/><path d="M568.109 258.878C568.109 258.878 566.325 256.784 564.5 257.014 562.674 257.244 561.54 258.377 559.254 259.289 556.968 260.2 551.509 260.43 551.509 261.112 551.509 261.794 546.723 264.528 543.525 265.218 540.327 265.908 530.287 272.724 527.821 285.929 525.354 299.134 520.988 303.002 520.988 303.002L545.087 314.869C545.087 314.869 526.398 394.1 524.121 399.792 521.843 405.483 521.654 439.21 521.654 439.21 521.654 439.21 536.454 445.78 540.343 447.858 544.232 449.935 542.621 428.198 550.596 415.707 558.572 403.216 567.69 384.969 567.69 384.969L581.594 346.075C581.594 346.075 590.49 294.166 582.967 284.599 575.443 275.032 567.427 262.311 568.109 258.878Z" fill="#26A69A" fill-rule="evenodd"/><path d="M518.53 358.871C519.211 358.977 520.083 359.084 521.089 359.175 528.467 359.84 542.948 359.996 542.948 359.996 542.948 359.996 553.749 338.803 562.988 339.452 562.988 339.452 554.464 329.886 551.016 331.029 550.434 331.218 550.068 330.798 549.894 329.977 548.972 325.868 552.162 311.897 552.162 311.897L556.541 292.996 531.2 299.143C528.899 299.603 521.753 303.252 521.753 303.252 521.753 303.252 521.529 313.048 519.685 315.332 517.84 317.617 515.771 328.547 515.996 331.275 516.22 334.003 513.462 346.774 516.228 350.176 518.995 353.578 512.813 357.958 518.53 358.871Z" fill="#000000" fill-rule="evenodd" fill-opacity="0.101961"/><path d="M611.82 508.045C611.82 508.045 613.162 515.527 611.603 520.311 610.043 525.095 610.26 535.505 611.378 539.119 612.495 542.733 616.282 547.73 606.032 549.995 595.782 552.26 588.868 550.224 588.418 548.408 587.967 546.593 585.749 539.34 587.525 535.259 589.302 531.179 589.937 520.54 586.633 514.399 583.329 508.258 585.524 498.756 588.643 497.627 591.762 496.499 597.116 493.996 597.116 493.996 597.116 493.996 591.32 504.627 596.666 506.925 602.012 509.223 611.82 508.045 611.82 508.045Z" fill="#65617D" fill-rule="evenodd"/><path d="M562.005 236.264C561.989 243.234 564.682 249.943 569.522 254.996 569.547 254.954 569.569 254.911 569.588 254.865 570.415 253.135 571.184 251.339 571.118 249.444 571.044 247.156 569.712 245.089 569.282 242.825 568.745 239.971 569.687 237.084 570.614 234.312 571.292 232.294 572.607 229.842 574.749 230.088 575.162 230.193 575.587 230.243 576.014 230.236 577.147 230.064 577.379 228.595 577.511 227.464 578.216 222.007 582.412 217.636 587.873 216.67 588.476 216.538 589.105 216.58 589.684 216.793 590.511 217.146 590.917 217.999 591.636 218.491 593.96 220.09 596.921 217.031 599.749 217.269 602.156 217.466 603.62 219.902 604.612 222.084 605.604 224.265 606.836 226.75 609.193 227.259 609.567 227.368 609.97 227.324 610.31 227.136 611.038 226.603 610.533 225.495 610.161 224.675 609.193 222.51 609.839 220.796 610.988 219.254 601.509 207.481 584.201 205.559 572.33 214.96 565.793 220.137 561.987 227.984 561.988 236.28Z" fill="#000000" fill-rule="evenodd" fill-opacity="0.101961"/><path d="M609.998 224.256C610.366 225.077 610.873 226.21 610.137 226.719 609.805 226.912 609.407 226.957 609.041 226.843 606.709 226.342 605.482 223.846 604.5 221.662 603.519 219.478 602.046 217.04 599.698 216.842 596.9 216.604 593.971 219.667 591.664 218.066 590.961 217.573 590.527 216.719 589.742 216.366 589.168 216.156 588.546 216.116 587.95 216.251 582.548 217.214 578.393 221.586 577.692 227.048 577.577 228.173 577.34 229.65 576.219 229.823 575.797 229.83 575.376 229.781 574.967 229.675 572.857 229.429 571.564 231.875 570.877 233.895 569.961 236.662 569.028 239.568 569.56 242.426 569.985 244.692 571.302 246.761 571.376 249.059 571.433 250.948 570.64 252.754 569.862 254.478 569.085 256.202 567.801 258.222 565.936 257.976 564.398 257.779 563.555 256.145 562.819 254.774 562.082 253.403 560.757 251.941 559.268 252.368 558.597 252.565 557.91 253.132 557.305 252.787 556.985 252.55 556.777 252.19 556.732 251.794 556.004 248.616 557.051 245.036 555.505 242.163 554.319 239.954 551.914 238.756 549.958 237.187 543.104 231.69 541.987 221.657 547.464 214.778 547.576 214.638 547.69 214.499 547.807 214.363 549.901 211.9 552.912 209.732 553.083 206.506 553.206 204.043 551.554 201.785 551.537 199.322 551.521 196.859 553.051 194.79 554.81 193.156 559.934 188.449 567.036 186.571 573.806 188.131 575.565 188.558 577.332 189.215 579.123 188.993 581.209 188.73 582.944 187.351 584.85 186.382 591.292 183.348 598.976 185.431 603.02 191.309 605.163 194.667 606.006 199.043 609.213 201.399 611.315 202.942 614.342 203.525 615.504 205.865 616.199 207.277 616.003 208.944 615.79 210.496 615.461 213.049 614.237 215.4 612.338 217.13 610.366 219.166 608.689 221.292 609.998 224.256Z" fill="#512E4E" fill-rule="evenodd"/><path d="M552.976 201.996C552.537 201.344 552.203 200.676 551.975 199.996 552.416 200.648 552.75 201.317 552.976 201.996Z" fill-rule="evenodd"/><path d="M609.861 221.996C609.752 221.58 609.608 221.174 609.432 220.783 608.183 217.816 609.783 215.701 611.648 213.718 613.455 211.988 614.619 209.641 614.933 207.095 615.039 206.4 615.101 205.699 615.121 204.996 615.274 205.202 615.41 205.422 615.526 205.652 616.19 207.062 616.003 208.726 615.8 210.275 615.485 212.823 614.318 215.171 612.506 216.898 611.086 218.431 609.822 220.021 609.861 221.996Z" fill-rule="evenodd"/><path d="M557.897 249.048C559.394 248.606 560.727 250.106 561.467 251.49 562.207 252.874 563.055 254.541 564.601 254.741 566.477 254.983 567.768 252.932 568.55 251.19 569.332 249.448 570.138 247.605 570.072 245.688 570.062 245.457 570.04 245.226 570.006 244.996 570.541 246.242 570.871 247.569 570.985 248.923 571.043 250.84 570.245 252.674 569.463 254.424 568.682 256.175 567.39 258.226 565.514 257.975 563.968 257.775 563.121 256.117 562.38 254.724 561.64 253.332 560.307 251.848 558.81 252.282 558.135 252.482 557.444 253.057 556.835 252.707 556.514 252.467 556.305 252.101 556.26 251.698 556.106 250.974 556.016 250.238 555.988 249.498 556.58 249.765 557.255 249.214 557.897 249.048Z" fill-rule="evenodd"/><path d="M548.734 233.72C550.653 235.331 553.021 236.563 554.185 238.833 554.655 239.819 554.928 240.895 554.988 241.996 553.808 239.803 551.496 238.58 549.609 236.993 546.646 234.485 544.649 230.933 543.988 226.996 544.991 229.631 546.625 231.947 548.734 233.72Z" fill-rule="evenodd"/><path d="M569.026 241.996C568.655 241.088 568.361 240.151 568.147 239.195 567.602 236.344 568.557 233.46 569.495 230.683 570.181 228.668 571.512 226.226 573.681 226.472 574.099 226.577 574.53 226.627 574.962 226.62 576.109 226.448 576.351 224.981 576.469 223.843 577.195 218.398 581.444 214.043 586.968 213.078 587.577 212.939 588.215 212.978 588.801 213.193 589.638 213.545 590.049 214.397 590.769 214.888 593.13 216.527 596.127 213.43 598.99 213.668 601.418 213.864 602.908 216.298 603.913 218.477 604.918 220.656 606.174 223.138 608.551 223.646 608.926 223.76 609.333 223.716 609.673 223.523 609.896 223.363 610.031 223.113 610.042 222.843 610.117 223.321 610.258 223.787 610.46 224.228 610.837 225.047 611.356 226.177 610.602 226.685 610.262 226.878 609.856 226.922 609.481 226.808 607.094 226.308 605.839 223.818 604.834 221.639 603.829 219.46 602.322 217.027 599.919 216.83 597.056 216.593 594.059 219.648 591.698 218.051 590.978 217.559 590.534 216.707 589.73 216.355 589.143 216.145 588.507 216.105 587.897 216.24 582.368 217.201 578.116 221.563 577.398 227.013 577.281 228.135 577.038 229.61 575.891 229.782 575.459 229.79 575.028 229.74 574.61 229.634 572.45 229.389 571.127 231.83 570.424 233.845 569.528 236.5 568.632 239.268 569.026 241.996Z" fill-rule="evenodd"/><path d="M520.988 359.175C528.383 359.84 542.9 359.996 542.9 359.996 542.9 359.996 553.727 338.816 562.988 339.465 562.988 339.465 554.443 329.906 550.987 331.048 550.404 331.236 550.037 330.818 549.862 329.996 540.818 332.723 523.578 339.383 521.887 351.078 521.404 354.264 521.113 356.925 520.988 359.175Z" fill="#000000" fill-rule="evenodd" fill-opacity="0.101961"/><path d="M519.988 359.175C527.383 359.84 541.9 359.996 541.9 359.996 541.9 359.996 552.727 338.816 561.988 339.465 561.988 339.465 553.451 329.906 549.987 331.048 549.404 331.236 549.046 330.818 548.862 329.996 539.818 332.723 522.578 339.383 520.887 351.078 520.438 354.264 520.154 356.925 519.988 359.175Z" fill="#26A69A" fill-rule="evenodd"/><path d="M583.988 419.969C583.988 419.969 563.399 415.153 560.245 417.782 557.091 420.411 583.988 419.969 583.988 419.969Z" fill="#000000" fill-rule="evenodd" fill-opacity="0.101961"/><path d="M642.988 438.996C642.988 438.996 633.994 444.058 633.046 448.199 632.098 452.34 642.988 438.996 642.988 438.996Z" fill="#000000" fill-rule="evenodd" fill-opacity="0.101961"/><path d="M607.988 531.871C607.988 531.871 596.316 529.794 593.329 532.04 590.342 534.286 607.988 531.871 607.988 531.871Z" fill="#000000" fill-rule="evenodd" fill-opacity="0.101961"/><path d="M489.988 690.996C489.988 690.996 535.825 688.527 546.997 681.943 558.169 675.358 573.984 675.358 574.066 675.358L756.578 635.408 832.454 617.301 845.988 615.515 801.283 564.19 799.921 563.597 734.02 534.996C734.02 534.996 704.49 536.642 698.658 555.951 698.258 557.311 697.984 558.705 697.838 560.116 697.226 566.135 698.889 572.165 702.497 577.013 704.827 580.214 707.69 584.741 708.592 588.741 709.1 590.996 708.985 593.079 707.771 594.667 705.311 597.118 702.594 599.295 699.667 601.161 683.598 611.861 642.978 629.49 572.016 602.486 572.016 602.486 541.665 572.445 518.698 585.202 495.73 597.959 489.988 690.996 489.988 690.996Z" fill="#E1DEE5" fill-rule="evenodd"/><path d="M708.828 588.393C709.336 590.632 709.221 592.699 708.008 594.276 705.549 596.71 702.833 598.872 699.908 600.724L837.988 610.996 800.144 563.394 734.276 534.996C734.276 534.996 704.761 536.631 698.932 555.802 698.533 557.153 698.258 558.537 698.112 559.937 697.5 565.914 699.162 571.902 702.769 576.715 705.065 579.943 707.926 584.421 708.828 588.393Z" fill="#000000" fill-rule="evenodd" fill-opacity="0.101961"/><path d="M843.948 400 731 402.463 731 538.086 838.219 611 864 587.191 858.68 508.374 864 434.893 843.948 400Z" fill="#65617D" fill-rule="evenodd"/><path d="M907.988 377.687 775.875 336.879C773.489 336.141 770.985 335.862 768.495 336.056L452.89 359.171C425.895 361.025 399.912 370.219 377.731 385.765 357.306 400.218 337.077 422.403 327.713 455.99 320.962 480.78 321.454 506.994 329.132 531.512L356.97 621.996C356.97 621.996 336.061 425.398 544.742 415.527Z" fill="#D9D6DF" fill-rule="evenodd"/><path d="M702.859 577.193C705.232 580.415 708.147 584.971 709.066 588.996 712.708 584.813 713.494 580.092 708.231 576.323 701.64 571.569 699.443 563.319 698.95 555.996 698.543 557.365 698.263 558.768 698.115 560.188 697.491 566.245 699.184 572.314 702.859 577.193Z" fill="#FFFFFF" fill-rule="evenodd" fill-opacity="0.101961"/><path d="M370.988 598.595 386.568 651.513 421.828 685.972 466.108 694.996 534.988 682.69 534.988 437.79C534.988 437.79 523.098 429.996 521.868 429.996 520.638 429.996 487.428 435.329 487.428 435.329L412.234 489.289 409.118 491.529 375.498 541.575Z" fill="#65617D" fill-rule="evenodd"/><path d="M535 428 535 682.812 529 684 529 428 535 428Z" fill="#65617D" fill-rule="evenodd"/><path d="M843.948 400 731 402.463 731 538.086 838.219 611 864 587.191 858.68 508.374 864 434.893 843.948 400Z" fill="#000000" fill-rule="evenodd" fill-opacity="0.101961"/><path d="M535 428 535 682.812 529 684 529 428 535 428Z" fill="#000000" fill-rule="evenodd" fill-opacity="0.101961"/><path d="M410.988 506.996C460.097 466.196 514.69 460.195 534.988 459.451L534.988 437.859C534.988 437.859 523.12 429.996 521.892 429.996 520.665 429.996 487.516 435.376 487.516 435.376L412.461 489.807Z" fill="#000000" fill-rule="evenodd" fill-opacity="0.101961"/><path d="M958.988 484.945C958.988 484.945 953.875 498.341 948.391 513.939 943.535 527.802 938.381 543.416 936.275 552.906 935.449 556.534 933.376 560.276 930.444 563.935 917.072 580.762 886.256 597.065 880.937 602.853 874.453 609.912 837.988 614.996 837.988 614.996L837.988 397.775 862.353 389.996 893.326 389.996 933.384 408.01 954.032 438.306Z" fill="#65617D" fill-rule="evenodd"/><path d="M536.077 357.313C537.661 359.286 585.778 359.746 588.268 359.169L592.792 358.124C592.792 358.124 616.018 370.923 631.991 349.982 632.677 349.087 633.347 348.134 634 347.114 649.965 322.202 596.753 340.427 596.753 340.427 596.753 340.427 576.378 340.544 571.168 340.544L570.629 340.544C565.215 340.318 554.419 336.957 554.419 336.957 554.419 336.957 534.501 355.349 536.077 357.313Z" fill="#FBBEBE" fill-rule="evenodd"/><path d="M606.263 349.888C606.263 349.888 626.652 350.005 631.865 350.064L631.988 350.064C632.674 349.165 633.344 348.207 633.998 347.182 649.974 322.141 596.726 340.46 596.726 340.46 596.726 340.46 576.337 340.577 571.124 340.577L570.584 340.577C570.069 341.266 569.563 341.989 569.064 342.754 552.81 367.576 606.263 349.888 606.263 349.888Z" fill="#000000" fill-rule="evenodd" fill-opacity="0.101961"/><path d="M649.2 351.96C649.2 351.96 637.6 348.336 632.348 348.279 627.096 348.223 606.556 348.117 606.556 348.117 606.556 348.117 552.724 365.18 569.082 341.17 585.44 317.159 610.746 330.923 610.746 330.923L615.315 329.956C617.834 329.42 666.356 330.403 667.904 332.337 669.451 334.271 649.2 351.96 649.2 351.96Z" fill="#FBBEBE" fill-rule="evenodd"/><path d="M517.545 358.871C518.226 358.977 519.098 359.084 520.103 359.175 527.478 359.84 541.955 359.996 541.955 359.996 541.955 359.996 552.752 338.803 561.988 339.452 561.988 339.452 553.475 329.886 550.02 331.029 549.438 331.218 549.081 330.798 548.898 329.977 547.985 325.868 551.166 311.897 551.166 311.897L555.543 292.996 530.194 299.176C527.894 299.636 520.759 303.285 520.759 303.285 520.759 303.285 520.527 313.081 518.683 315.365 516.839 317.65 514.771 328.58 514.995 331.308 515.22 334.036 512.462 346.807 515.228 350.209 517.994 353.611 511.789 357.958 517.545 358.871Z" fill="#26A69A" fill-rule="evenodd"/><path d="M542.989 308.996C542.989 308.996 522.889 311.329 522.014 316.701 521.139 322.073 542.989 308.996 542.989 308.996Z" fill="#000000" fill-rule="evenodd" fill-opacity="0.101961"/><path d="M530.988 328.996C529.633 329.488 521.712 331.675 520.127 336.796 518.543 341.917 530.988 328.996 530.988 328.996Z" fill="#000000" fill-rule="evenodd" fill-opacity="0.101961"/><path d="M520.988 359.175C528.383 359.84 542.9 359.996 542.9 359.996 542.9 359.996 553.727 338.816 562.988 339.465 562.988 339.465 554.443 329.906 550.987 331.048 550.404 331.236 550.037 330.818 549.862 329.996 540.818 332.723 523.578 339.383 521.887 351.078 521.404 354.264 521.113 356.925 520.988 359.175Z" fill="#000000" fill-rule="evenodd" fill-opacity="0.101961"/><path d="M882 95.0001C882 104.941 873.941 113 864 113 854.059 113 846 104.941 846 95.0001 846 85.0589 854.059 77 864 77 873.941 77 882 85.0589 882 95.0001Z" fill="#26A69A" fill-rule="evenodd" fill-opacity="0.101961"/><path d="M957 139C957 146.732 950.732 153 943 153 935.268 153 929 146.732 929 139 929 131.268 935.268 125 943 125 950.732 125 957 131.268 957 139Z" fill="#26A69A" fill-rule="evenodd" fill-opacity="0.101961"/><path d="M987 71.5C987 73.9853 984.762 76 982 76 979.239 76 977 73.9853 977 71.5 977 69.0147 979.239 67 982 67 984.762 67 987 69.0147 987 71.5Z" fill="#26A69A" fill-rule="evenodd" fill-opacity="0.101961"/><path d="M289.947 584.996C289.947 584.996 295.748 592.695 287.271 604.313 278.793 615.932 271.812 625.768 274.619 632.996 274.619 632.996 287.417 611.41 297.839 611.113 308.262 610.816 301.452 597.993 289.947 584.996Z" fill="#26A69A" fill-rule="evenodd"/><path d="M289.801 584.996C290.314 585.738 290.718 586.549 291.002 587.406 301.278 599.519 306.758 610.824 296.877 611.113 287.67 611.377 276.629 627.88 273.988 632.047 274.071 632.37 274.176 632.687 274.301 632.996 274.301 632.996 287.242 611.41 297.781 611.113 308.321 610.816 301.434 597.993 289.801 584.996Z" fill="#000000" fill-rule="evenodd" fill-opacity="0.101961"/><path d="M300.991 594.828C300.991 597.682 300.766 599.996 300.491 599.996 300.217 599.996 299.991 597.682 299.991 594.828 299.991 591.974 300.272 593.314 300.546 593.314 300.82 593.314 300.991 591.965 300.991 594.828Z" fill="#FFD037" fill-rule="evenodd"/><path d="M304.539 598.015C302.209 599.422 300.179 600.273 300.001 599.914 299.823 599.556 301.57 598.122 303.908 596.716 306.245 595.309 305.315 596.331 305.525 596.716 305.736 597.101 306.876 596.608 304.539 598.015Z" fill="#FFD037" fill-rule="evenodd"/><path d="M259.016 584.996C259.016 584.996 253.212 592.695 261.694 604.313 270.176 615.932 277.161 625.768 274.36 632.996 274.36 632.996 261.548 611.41 251.129 611.113 240.709 610.816 247.547 597.993 259.016 584.996Z" fill="#26A69A" fill-rule="evenodd"/><path d="M259.161 584.996C258.648 585.738 258.243 586.549 257.959 587.406 247.679 599.519 242.198 610.824 252.083 611.113 261.293 611.377 272.338 627.88 274.988 632.047 274.901 632.369 274.797 632.686 274.675 632.996 274.675 632.996 261.72 611.41 251.185 611.113 240.65 610.816 247.564 597.993 259.161 584.996Z" fill="#000000" fill-rule="evenodd" fill-opacity="0.101961"/><path d="M247.982 594.828C247.982 597.682 248.433 599.996 248.982 599.996 249.531 599.996 249.982 597.682 249.982 594.828 249.982 591.974 249.421 593.314 248.873 593.314 248.324 593.314 247.982 591.965 247.982 594.828Z" fill="#FFD037" fill-rule="evenodd"/><path d="M244.438 598.015C246.768 599.422 248.798 600.273 248.976 599.914 249.154 599.556 247.407 598.122 245.069 596.716 242.731 595.309 243.661 596.331 243.451 596.716 243.241 597.101 242.1 596.608 244.438 598.015Z" fill="#FFD037" fill-rule="evenodd"/><path d="M335.841 677.905C336.208 683.085 309.145 689.222 275.394 691.612 241.643 694.001 213.986 691.739 213.619 686.559 213.252 681.379 240.315 675.242 274.066 672.852 307.817 670.463 335.475 672.725 335.841 677.905Z" fill="#26A69A" fill-rule="evenodd" fill-opacity="0.101961"/><path d="M305.975 622.607 305.68 625.017 305.27 628.429 305.106 629.845 304.696 633.257 304.515 634.682 304.105 638.085 299.423 676.843C299.004 680.305 293.411 682.996 286.654 682.996L262.322 682.996C255.565 682.996 249.98 680.305 249.562 676.843L244.871 638.085 244.461 634.682 244.289 633.257 243.87 629.845 243.706 628.429 243.296 625.017 243.001 622.607C242.763 620.644 245.798 618.996 249.619 618.996L299.365 618.996C303.179 618.996 306.213 620.644 305.975 622.607Z" fill="#65617D" fill-rule="evenodd"/><path d="M306 625 305.593 628 244.407 628 244 625 306 625Z" fill="#9D9CB5" fill-rule="evenodd"/><path d="M305 630 304.592 633 244.417 633 244 630 305 630Z" fill="#9D9CB5" fill-rule="evenodd"/><path d="M305 635 304.59 638 245.41 638 245 635 305 635Z" fill="#9D9CB5" fill-rule="evenodd"/><path d="M764.531 350 787 351.161 749.966 363 731 361.89 764.531 350Z" fill="#000000" fill-rule="evenodd" fill-opacity="0.101961"/><path d="M764.534 349 787 350.168 749.963 362 731 360.882 764.534 349Z" fill="#FFFFFF" fill-rule="evenodd"/><path d="M760.988 352.09C761.9 351.778 762.89 352.341 763.87 352.473 764.433 352.553 765.013 352.473 765.576 352.54 766.719 352.646 767.862 353.202 768.988 352.917Z" fill="#D3DAE1" fill-rule="evenodd"/><path d="M759.987 352.18C760.905 351.555 761.9 352.684 762.886 352.95 763.452 353.11 764.035 352.95 764.601 353.083 765.75 353.295 766.899 354.411 767.988 353.827Z" fill="#D3DAE1" fill-rule="evenodd"/><path d="M757.989 354.09C758.787 353.778 759.652 354.342 760.516 354.475 761.001 354.555 761.508 354.475 762.007 354.541 763.006 354.648 764.005 355.206 764.989 354.913Z" fill="#D3DAE1" fill-rule="evenodd"/><path d="M814.265 345.996C814.265 345.996 811.384 359.412 824.196 360.996L824.988 359.513C824.988 359.513 815.04 350.168 814.265 345.996Z" fill="#26A69A" fill-rule="evenodd"/><path d="M828.988 359.301 826.04 359.937 825.749 359.996C825.749 359.996 817.889 353.499 817.989 338.996 819.039 341.135 820.297 343.161 821.744 345.043 824.858 349.242 828.397 354.848 828.988 359.301Z" fill="#26A69A" fill-rule="evenodd"/><path d="M830.135 360.697C829.655 361.005 829.061 361.08 828.519 360.9 820.796 359.102 823.416 333.996 823.416 333.996 823.841 334.2 824.309 337.39 826.086 341.513 829.191 348.759 832.618 358.873 830.135 360.697Z" fill="#26A69A" fill-rule="evenodd"/><path d="M845.987 345.996C845.987 345.996 846.441 359.412 834.714 360.996L833.989 359.513C833.989 359.513 845.215 350.168 845.987 345.996Z" fill="#26A69A" fill-rule="evenodd"/><path d="M842.988 338.996C843.085 353.499 833.143 359.996 833.143 359.996L832.851 359.937 829.988 359.301C830.556 354.848 834.043 349.242 837.035 345.043 838.753 342.759 840.755 340.726 842.988 338.996Z" fill="#26A69A" fill-rule="evenodd"/><path d="M832.324 359.392C831.907 359.951 831.382 360.401 830.788 360.708L830.788 360.708C830.602 360.797 830.409 360.865 830.211 360.911 828.498 361.361 827.906 359.986 827.998 357.669 828.159 353.527 830.511 346.355 832.609 340.99 833.618 338.351 835.109 335.97 836.989 333.996 836.989 333.996 836.881 353.595 832.324 359.392Z" fill="#26A69A" fill-rule="evenodd"/><path d="M830.083 325.996C830.083 325.996 821.704 355.243 828.918 359.622 836.132 364.001 831.934 328.588 830.083 325.996Z" fill="#26A69A" fill-rule="evenodd"/><path d="M814.265 345.996C814.265 345.996 811.384 359.412 824.196 360.996L824.988 359.513C824.988 359.513 815.04 350.168 814.265 345.996Z" fill="#000000" fill-rule="evenodd" fill-opacity="0.101961"/><path d="M828.988 359.301 826.04 359.937 825.749 359.996C825.749 359.996 817.889 353.499 817.989 338.996 819.039 341.135 820.297 343.161 821.744 345.043 824.858 349.242 828.397 354.848 828.988 359.301Z" fill="#000000" fill-rule="evenodd" fill-opacity="0.101961"/><path d="M830.135 360.697C829.655 361.005 829.061 361.08 828.519 360.9 820.796 359.102 823.416 333.996 823.416 333.996 823.841 334.2 824.309 337.39 826.086 341.513 829.191 348.759 832.618 358.873 830.135 360.697Z" fill="#000000" fill-rule="evenodd" fill-opacity="0.101961"/><path d="M845.987 345.996C845.987 345.996 846.441 359.412 834.714 360.996L833.989 359.513C833.989 359.513 845.215 350.168 845.987 345.996Z" fill="#000000" fill-rule="evenodd" fill-opacity="0.101961"/><path d="M842.988 338.996C843.085 353.499 833.143 359.996 833.143 359.996L832.851 359.937 829.988 359.301C830.556 354.848 834.043 349.242 837.035 345.043 838.753 342.759 840.755 340.726 842.988 338.996Z" fill="#000000" fill-rule="evenodd" fill-opacity="0.101961"/><path d="M832.324 359.392C831.907 359.951 831.382 360.401 830.788 360.708L830.788 360.708C830.602 360.797 830.409 360.865 830.211 360.911 828.498 361.361 827.906 359.986 827.998 357.669 828.159 353.527 830.511 346.355 832.609 340.99 833.618 338.351 835.109 335.97 836.989 333.996 836.989 333.996 836.881 353.595 832.324 359.392Z" fill="#000000" fill-rule="evenodd" fill-opacity="0.101961"/><path d="M830.083 325.996C830.083 325.996 821.704 355.243 828.918 359.622 836.132 364.001 831.934 328.588 830.083 325.996Z" fill="#000000" fill-rule="evenodd" fill-opacity="0.101961"/><path d="M814.061 345.996C814.061 345.996 812.374 359.412 825.195 360.996L825.988 359.513C825.988 359.513 814.837 350.168 814.061 345.996Z" fill="#26A69A" fill-rule="evenodd"/><path d="M829.988 359.301 827.083 359.937 826.795 359.996C826.795 359.996 817.89 353.499 817.989 338.996 817.989 338.996 820.271 341.541 822.848 345.043 825.917 349.242 829.405 354.848 829.988 359.301Z" fill="#26A69A" fill-rule="evenodd"/><path d="M829.988 359.356 827.14 359.996C824.445 357.476 823.375 350.916 822.988 344.996 825.998 349.225 829.417 354.871 829.988 359.356Z" fill="#000000" fill-rule="evenodd" fill-opacity="0.101961"/><path d="M831.128 360.697C830.638 361.005 830.034 361.079 829.482 360.901 821.66 359.102 823.09 333.996 823.09 333.996 823.521 334.2 825.218 337.39 827.01 341.514 830.171 348.76 833.634 358.873 831.128 360.697Z" fill="#26A69A" fill-rule="evenodd"/><path d="M845.922 345.996C845.922 345.996 847.468 359.412 835.716 360.996L834.989 359.513C834.989 359.513 845.148 350.168 845.922 345.996Z" fill="#26A69A" fill-rule="evenodd"/><path d="M842.987 338.996C843.086 353.499 834.181 359.996 834.181 359.996L833.893 359.937 830.988 359.301C831.563 354.848 835.092 349.242 838.128 345.043 840.706 341.524 842.987 338.996 842.987 338.996Z" fill="#26A69A" fill-rule="evenodd"/><path d="M837.988 344.996C837.618 350.514 836.669 356.588 834.36 359.432 834.198 359.633 834.023 359.821 833.837 359.996L830.988 359.356C831.552 354.871 835.011 349.225 837.988 344.996Z" fill="#000000" fill-rule="evenodd" fill-opacity="0.101961"/><path d="M833.861 359.392C833.394 359.954 832.803 360.404 832.133 360.708L832.133 360.708C831.927 360.796 831.713 360.864 831.493 360.911 829.558 361.361 828.901 359.986 828.996 357.669 829.186 353.527 831.83 346.355 834.18 340.99 835.909 337.12 837.472 334.2 837.887 333.996 837.887 333.996 838.993 353.595 833.861 359.392Z" fill="#26A69A" fill-rule="evenodd"/><path d="M831.198 359.997C830.79 359.993 830.393 359.865 830.058 359.63 826.678 357.513 826.607 349.56 827.414 341.996 830.32 348.795 833.502 358.285 831.198 359.997Z" fill="#000000" fill-rule="evenodd" fill-opacity="0.101961"/><path d="M833.946 358.724C833.514 359.591 832.933 360.049 832.184 359.992L832.184 359.992C831.804 359.94 831.44 359.811 831.119 359.616 830.142 358.989 829.398 358.098 828.987 357.064 829.181 353.074 831.876 346.164 834.272 340.996 835.135 348.168 835.425 355.78 833.946 358.724Z" fill="#000000" fill-rule="evenodd" fill-opacity="0.101961"/><path d="M830.257 325.996C830.257 325.996 822.901 355.243 830.257 359.622 837.612 364.001 832.146 328.588 830.257 325.996Z" fill="#26A69A" fill-rule="evenodd"/><path d="M842 361 841.499 363.784 839.674 374 822.326 374 820.501 363.784 820 361 842 361Z" fill="#65617D" fill-rule="evenodd"/><path d="M842 361 841.499 364 820.501 364 820 361 842 361Z" fill="#000000" fill-rule="evenodd" fill-opacity="0.101961"/><path d="M815 358 845 358 845 363 815 363Z" fill="#65617D" fill-rule="evenodd"/><path d="M895.469 399.996C895.469 399.996 954.395 436.985 941.503 496.496 940.452 501.354 939.54 506.228 938.941 511.151 936.584 530.435 922.444 585.762 837.988 611.243L837.988 616.996 873.815 606.993 898.138 593.57 916.704 576.893 939.401 549.184 949.936 526.58 953.796 496.808 955.988 462.811 950.56 433.697 937.758 414.734 922.156 402.586Z" fill="#D9D6DF" fill-rule="evenodd"/><path d="M352.332 558.956C346.764 588.492 351.084 619.219 365.62 645.564 408.005 722.375 498.08 699.771 524.656 691.058 530.979 688.982 537.385 687.185 543.873 685.717L836.6 619.44C937.342 601.94 958.145 520.435 958.145 520.435 978.093 457.572 964.419 420.946 946.368 400.189 931.883 383.724 910.613 374.844 888.708 376.117L853.985 377.954 545.335 411.593C401.049 413.136 362.508 504.888 352.332 558.956ZM380.92 562.656C390.652 516.169 428.824 448.744 551.593 444.584 557.226 444.387 562.852 443.895 568.445 443.148L844.484 406.309 876.447 404.668C900.46 403.462 923.636 414.629 936.948 434.623 949.661 453.732 956.535 483.851 940.808 530.675 940.808 530.675 921.566 601.825 828.403 617.11L558.023 674.952C551.872 676.265 545.795 677.873 539.791 679.727 515.269 687.292 433.727 706.474 394.118 642.052 379.557 618.365 375.221 589.863 380.92 562.656Z" fill="#E1DEE5" fill-rule="evenodd"/><path d="M677.988 336.947C677.988 336.947 677.638 353.757 665.971 354.718 641.465 356.72 647.696 347.262 647.696 347.262L649.814 328.433 661.359 317.996C661.359 317.996 666.426 320.322 667.082 319.928 667.739 319.535 677.988 336.947 677.988 336.947Z" fill="#26A69A" fill-rule="evenodd"/><path d="M75.8405 29.2928 72.7833 27.1944 72.7833 27.1944C72.3283 26.8817 71.7747 26.6749 71.1831 26.5957L3.06647 17.5045C1.51176 17.297 0.363322 16.3979 0.0691296 15.1577-0.224828 13.9178 0.432021 12.744 1.78369 12.0944L26.0846 0.418795C26.8969 0.0284322 27.8524-0.0944288 28.777 0.0729635L115.143 15.6981C116.822 16.0018 117.943 17.0881 117.998 18.4661 118.053 19.8438 117.021 20.9856 115.37 21.3745L79.2589 29.8796C78.9163 29.9606 78.5669 30 78.2201 30 77.3582 30 76.515 29.7555 75.8405 29.2928Z" fill="#3F3D56" fill-rule="evenodd" transform="matrix(-1 0 0 1 701 357)"/><path d="M101.447 68.9499 23.6162 60.3797C21.0113 60.093 18.8614 58.6058 18.1387 56.5913L0.262894 6.74674C-0.342817 5.05741 0.109376 3.30792 1.50357 1.94701 2.89773 0.585849 4.9576-0.117574 7.15716 0.0160895L85.572 4.80219C88.409 4.97531 90.7903 6.56711 91.4984 8.76244L108.79 62.3912C109.342 64.1025 108.79 65.9115 107.314 67.23 106.043 68.3657 104.24 69 102.361 69 102.058 69 101.753 68.9834 101.447 68.9499Z" fill="#3F3D56" fill-rule="evenodd" transform="matrix(-1 0 0 1 728 318)"/></g></svg>